<svg t="1645333958468" class="icon" viewBox="0 0 1024 1024" version="1.1" xmlns="http://www.w3.org/2000/svg" p-id="2257" width="200" height="200"><path d="M512 972.8c-200.533333 0-418.133333-64-418.133333-179.2s213.333333-179.2 418.133333-179.2 418.133333 64 418.133333 179.2-217.6 179.2-418.133333 179.2z m0-298.666667c-213.333333 0-349.866667 68.266667-349.866667 115.2S298.666667 908.8 512 908.8s349.866667-68.266667 349.866667-119.466667-136.533333-115.2-349.866667-115.2z" fill="#0091FF" p-id="2258"></path><path d="M512 844.8c-110.933333 0-221.866667-29.866667-221.866667-93.866667s110.933333-93.866667 221.866667-93.866666 221.866667 29.866667 221.866667 93.866666-110.933333 93.866667-221.866667 93.866667z m-157.866667-98.133333c17.066667 12.8 68.266667 34.133333 157.866667 34.133333s140.8-21.333333 157.866667-34.133333c-17.066667-12.8-68.266667-34.133333-157.866667-34.133334-89.6 4.266667-140.8 21.333333-157.866667 34.133334zM729.6 379.733333h-12.8c-55.466667-8.533333-106.666667-59.733333-119.466667-106.666666-8.533333-38.4-8.533333-72.533333 8.533334-102.4 17.066667-34.133333 55.466667-59.733333 102.4-72.533334 68.266667-17.066667 153.6-4.266667 260.266666 46.933334 12.8 4.266667 21.333333 21.333333 17.066667 34.133333-4.266667 12.8-12.8 25.6-29.866667 25.6-46.933333 4.266667-89.6 38.4-128 102.4-29.866667 59.733333-72.533333 72.533333-98.133333 72.533333z m34.133333-226.133333c-17.066667 0-29.866667 0-42.666666 4.266667-34.133333 8.533333-55.466667 21.333333-64 42.666666-8.533333 12.8-8.533333 34.133333-4.266667 55.466667s38.4 55.466667 68.266667 59.733333c8.533333 0 29.866667 4.266667 51.2-38.4 25.6-46.933333 55.466667-81.066667 89.6-102.4-34.133333-12.8-68.266667-21.333333-98.133334-21.333333zM298.666667 465.066667c-29.866667 0-68.266667-12.8-102.4-68.266667-38.4-64-76.8-98.133333-128-102.4-12.8-4.266667-25.6-12.8-29.866667-29.866667 0-12.8 4.266667-25.6 17.066667-34.133333 106.666667-51.2 192-68.266667 260.266666-46.933333 93.866667 25.6 136.533333 89.6 110.933334 174.933333-12.8 46.933333-64 98.133333-119.466667 106.666667H298.666667zM157.866667 260.266667c34.133333 21.333333 64 55.466667 89.6 102.4 21.333333 38.4 46.933333 38.4 51.2 38.4 34.133333-4.266667 64-38.4 72.533333-59.733334 12.8-51.2-8.533333-81.066667-68.266667-98.133333-38.4-8.533333-85.333333-4.266667-145.066666 17.066667z m243.2 89.6z" fill="#0091FF" p-id="2259"></path><path d="M512 759.466667c-17.066667 0-34.133333-12.8-34.133333-34.133334v-81.066666c-4.266667-174.933333-4.266667-311.466667 123.733333-375.466667 17.066667-8.533333 34.133333 0 42.666667 12.8 8.533333 17.066667 0 34.133333-12.8 42.666667-89.6 42.666667-93.866667 140.8-89.6 315.733333v81.066667c4.266667 21.333333-12.8 38.4-29.866667 38.4z" fill="#0091FF" p-id="2260"></path><path d="M512 759.466667c-17.066667 0-34.133333-12.8-34.133333-34.133334 0-157.866667 0-277.333333-68.266667-311.466666-12.8-8.533333-21.333333-29.866667-12.8-42.666667 8.533333-17.066667 25.6-21.333333 42.666667-12.8 102.4 51.2 102.4 192 102.4 371.2 4.266667 12.8-12.8 29.866667-29.866667 29.866667z" fill="#0091FF" p-id="2261"></path></svg>
